<svg xmlns="http://www.w3.org/2000/svg" width="121.688" height="133.969" viewBox="0 0 121.688 133.969">
  <path id="main-logo" d="M77.988,0H15.269A2.07,2.07,0,0,0,13.2,2.071V24.129a1.959,1.959,0,0,0,1.958,1.958H51.308a.521.521,0,0,1,.524.52c0,23.069,0,48-.041,68.764,0,19.648-25.527,20.4-25.972.935a.533.533,0,0,0-.527-.52c-8.439-.007-15.827-.007-24.309-.024-.813,0-.983.384-.983,1.1,0,49.653,77.814,49.653,77.814-1.085,0-22.946.167-69.753.167-69.753,28.1,0,24.609,25.183,4.757,25.187h0c0,4.923-.007,9.476-.01,14.079v4.685h0c0,1.979-.007,3.988-.01,6.065,0,.813.384.983,1.1.983C133.461,77.029,137.1,0,77.988,0Z" fill="#efa047"/>
</svg>
